<?xml version="1.0" encoding="UTF-8" standalone="no"?>
<svg
   xmlns:dc="http://purl.org/dc/elements/1.1/"
   xmlns:cc="http://creativecommons.org/ns#"
   xmlns:rdf="http://www.w3.org/1999/02/22-rdf-syntax-ns#"
   xmlns:svg="http://www.w3.org/2000/svg"
   xmlns="http://www.w3.org/2000/svg"
   viewBox="375 355 372 115"
   height="115"
   width="372"
   xml:space="preserve"
   id="svg2"
   version="1.1"><metadata
     id="metadata8"><rdf:RDF><cc:Work
         rdf:about=""><dc:format>image/svg+xml</dc:format><dc:type
           rdf:resource="http://purl.org/dc/dcmitype/StillImage" /></cc:Work></rdf:RDF></metadata><defs
     id="defs6"><clipPath
       id="clipPath24"
       clipPathUnits="userSpaceOnUse"><path
         id="path22"
         d="M 0,595.276 H 841.89 V 0 H 0 Z" /></clipPath></defs><g
     transform="matrix(1.3333333,0,0,-1.3333333,0,793.70133)"
     id="g10"><g
       transform="translate(296.046,313.8634)"
       id="g12"><path
         id="path14"
         style="fill:#231815;fill-opacity:1;fill-rule:nonzero;stroke:none"
         d="M 0,0 H 33.817 V 7.471 H -8.498 v -66.242 h 42.315 v 7.324 H 0 Z" /></g><path
       id="path16"
       style="fill:#231815;fill-opacity:1;fill-rule:nonzero;stroke:none"
       d="m 348.38,278.925 h -33.911 v 18.576 h 33.911 z m -42.41,-6.517 h 50.541 v 31.61 H 305.97 Z" /><g
       id="g18"><g
         clip-path="url(#clipPath24)"
         id="g20"><g
           transform="translate(376.1494,276.2751)"
           id="g26"><path
             id="path28"
             style="fill:#231815;fill-opacity:1;fill-rule:nonzero;stroke:none"
             d="m 0,0 6.333,0.005 c 1.955,0.001 3.49,0.193 4.602,0.576 1.112,0.382 1.999,0.92 2.659,1.613 0.93,0.976 1.654,2.287 2.172,3.934 0.518,1.647 0.776,3.644 0.774,5.99 -0.002,3.251 -0.513,5.748 -1.533,7.494 -1.019,1.744 -2.258,2.913 -3.715,3.505 -1.052,0.424 -2.745,0.634 -5.079,0.633 L -0.018,23.745 Z M -3.922,-3.671 -3.946,27.41 6.271,27.418 c 2.307,0.001 4.067,-0.146 5.281,-0.442 1.7,-0.409 3.151,-1.15 4.352,-2.223 1.565,-1.384 2.737,-3.153 3.514,-5.308 0.777,-2.155 1.167,-4.617 1.169,-7.387 C 20.589,9.697 20.327,7.605 19.803,5.781 19.278,3.958 18.605,2.449 17.783,1.254 16.961,0.059 16.061,-0.882 15.084,-1.568 14.107,-2.255 12.927,-2.775 11.545,-3.129 10.162,-3.484 8.574,-3.661 6.78,-3.662 Z" /></g><g
           transform="translate(451.5255,286.9113)"
           id="g30"><path
             id="path32"
             style="fill:#231815;fill-opacity:1;fill-rule:nonzero;stroke:none"
             d="m 0,0 0.008,-10.579 18.209,0.014 0.002,-3.668 -22.133,-0.017 -0.024,31.081 21.446,0.016 0.003,-3.668 -17.521,-0.013 0.007,-9.519" /></g><g
           transform="translate(490.9808,272.9594)"
           id="g34"><path
             id="path36"
             style="fill:#231815;fill-opacity:1;fill-rule:nonzero;stroke:none"
             d="m 0,0 -0.024,31.08 5.908,0.005 7.037,-22.001 c 0.649,-2.049 1.122,-3.582 1.42,-4.6 0.336,1.131 0.861,2.792 1.574,4.984 l 7.086,21.63 5.28,0.004 L 28.305,0.021 24.521,0.019 24.502,26.032 15.902,0.012 12.362,0.009 3.763,26.461 3.783,0.003 Z" /></g><g
           transform="translate(549.9435,304.0844)"
           id="g38"><path
             id="path40"
             style="fill:#231815;fill-opacity:1;fill-rule:nonzero;stroke:none"
             d="m 0,0 3.925,0.003 0.014,-17.957 c 0.002,-3.124 -0.333,-5.605 -1.006,-7.443 -0.673,-1.837 -1.89,-3.333 -3.649,-4.486 -1.759,-1.154 -4.069,-1.731 -6.928,-1.733 -2.779,-0.002 -5.052,0.498 -6.819,1.5 -1.768,1.002 -3.03,2.453 -3.787,4.354 -0.757,1.9 -1.137,4.497 -1.139,7.79 l -0.014,17.957 3.925,0.003 0.014,-17.936 c 0.002,-2.699 0.243,-4.689 0.723,-5.967 0.479,-1.279 1.303,-2.264 2.47,-2.956 1.167,-0.691 2.594,-1.037 4.28,-1.036 2.886,0.003 4.943,0.69 6.169,2.062 1.226,1.372 1.838,4.008 1.836,7.909 z" /></g><g
           transform="translate(423.2993,303.7233)"
           id="g42"><path
             id="path44"
             style="fill:#231815;fill-opacity:1;fill-rule:nonzero;stroke:none"
             d="m 0,0 -4.228,-0.003 -11.368,-31.089 4.168,0.003 2.758,7.988 1.639,4.778 h -0.016 l 3.25,9.119 c 0.687,1.965 1.218,3.945 1.594,5.937 0.46,-1.681 1.163,-3.829 2.109,-6.443 l 2.404,-6.667 2.572,-7.071 v 0 l 2.81,-7.626 4.471,0.003 z" /></g></g></g></g></svg>